<?xml version="1.0" encoding="UTF-8" standalone="no"?>
<!-- Created with Inkscape (http://www.inkscape.org/) -->

<svg
   width="44.201862mm"
   height="45.463593mm"
   viewBox="0 0 44.201862 45.463593"
   version="1.1"
   id="svg5"
   xmlns="http://www.w3.org/2000/svg"
   xmlns:svg="http://www.w3.org/2000/svg">
  <defs
     id="defs2" />
  <g
     id="layer1"
     transform="translate(-61.798322,-73.311941)">
    <path
       id="path452"
       style="fill:#141316;fill-opacity:1;fill-rule:nonzero;stroke:none;stroke-width:0.264583"
       d="M 78.744955,73.311966 C 77.290559,73.3074 75.895272,73.90557 74.837183,75.049327 74.208677,75.56661 73.601876,76.109971 72.965462,76.617707 75.97194,83.070571 80.691812,88.390687 86.177576,92.825508 82.480721,92.610578 78.780314,92.438528 75.079545,92.397618 74.222191,90.957598 72.088751,90.641168 71.265825,92.321138 69.848077,91.504538 67.7963,91.378688 66.761707,92.567118 66.711921,92.569918 66.662146,92.571998 66.612362,92.574868 66.614884,92.558808 66.618886,92.544168 66.621147,92.527848 L 66.627865,92.192988 66.578772,91.838488 C 65.764922,89.542748 60.741956,89.523758 61.999207,92.543348 62.385944,93.512078 63.410333,94.129558 64.399577,94.218188 64.29861,94.504498 64.244268,94.807038 64.241447,95.109598 63.583736,95.839508 63.097875,96.752668 62.928349,97.600918 62.61714,100.41054 65.286723,98.274258 66.695044,97.395248 67.450769,98.347828 68.658245,98.024408 69.647319,97.274328 69.962593,97.294138 70.277896,97.317388 70.592997,97.344608 70.55465,97.504778 70.525088,97.665978 70.507731,97.827778 71.116109,99.699094 73.528515,98.792938 75.007715,97.861888 78.438078,98.306558 81.865886,98.702708 85.306311,98.020018 86.00421,97.984078 86.702919,97.956198 87.401791,97.935268 81.196408,102.62532 75.804074,108.35994 72.49159,115.46959 73.128002,115.97733 73.735321,116.52069 74.363827,117.03797 75.902865,118.70162 78.155262,119.21121 80.265275,118.39034 86.406954,116.44208 90.078305,110.67837 95.280376,107.24115 97.694366,104.47318 101.46446,102.83743 102.99981,99.353264 103.28789,99.135974 103.55817,98.896828 103.80544,98.637548 104.51621,98.482578 105.1188,97.740448 105.4255,96.979768 105.49737,96.908088 105.56071,96.830748 105.61412,96.747228 105.65474,96.772378 105.68325,96.736658 105.69163,96.611318 105.71905,96.555938 105.7428,96.498588 105.76346,96.439758 105.99405,96.367108 106.11015,96.133868 105.85855,95.697678 105.79474,94.545638 104.86601,93.230588 103.55998,93.092668 103.542,92.986608 103.52022,92.878818 103.48815,92.766078 101.96183,89.259928 98.175596,87.622563 95.754256,84.846145 90.552177,81.408925 86.880314,75.64573 80.738631,73.697472 80.079253,73.440951 79.406043,73.314041 78.744955,73.311966 Z" />
  </g>
</svg>
