<?xml version="1.0" encoding="UTF-8" standalone="no"?>
<!-- Created with Inkscape (http://www.inkscape.org/) -->

<svg
   width="82.579979mm"
   height="26.851929mm"
   viewBox="0 0 82.579979 26.851929"
   version="1.1"
   id="svg5"
   inkscape:export-filename="arrow.svg"
   inkscape:export-xdpi="96"
   inkscape:export-ydpi="96"
   xmlns:inkscape="http://www.inkscape.org/namespaces/inkscape"
   xmlns:sodipodi="http://sodipodi.sourceforge.net/DTD/sodipodi-0.dtd"
   xmlns="http://www.w3.org/2000/svg"
   xmlns:svg="http://www.w3.org/2000/svg">
  <sodipodi:namedview
     id="namedview7"
     pagecolor="#ffffff"
     bordercolor="#000000"
     borderopacity="0.25"
     inkscape:showpageshadow="2"
     inkscape:pageopacity="0.0"
     inkscape:pagecheckerboard="0"
     inkscape:deskcolor="#d1d1d1"
     inkscape:document-units="mm"
     showgrid="false" />
  <defs
     id="defs2" />
  <g
     inkscape:label="Layer 1"
     inkscape:groupmode="layer"
     id="layer1"
     transform="translate(-38.897408,-78.778997)">
    <path
       id="path299"
       style="fill:#94977f;fill-opacity:1;fill-rule:nonzero;stroke:none;stroke-width:0.264583"
       d="M 46.479333,78.779171 C 45.441005,78.774017 44.514131,78.885183 43.560132,79.302136 43.159417,79.477274 42.476653,79.892318 42.131795,80.159448 41.924663,80.319894 41.742974,80.510599 41.548368,80.686031 40.966344,81.271498 40.445917,81.906844 40.067839,82.644568 39.707564,83.347559 39.485754,84.103469 39.274089,84.859937 39.078395,85.857007 38.925618,86.876616 39.038961,87.894377 39.097523,88.420223 39.235257,88.922513 39.357804,89.435368 39.73892,90.435453 40.276525,91.384572 41.119971,92.069316 41.162764,92.104057 41.203238,92.135949 41.242961,92.166467 41.172188,92.217865 41.097857,92.275083 41.017135,92.340617 40.173688,93.02536 39.636084,93.97448 39.254968,94.974565 39.132421,95.487419 38.994687,95.989709 38.936125,96.515556 38.822782,97.533317 38.975559,98.552926 39.171252,99.549996 39.382918,100.30646 39.604728,101.06186 39.965002,101.76485 40.343081,102.50257 40.863508,103.13843 41.445532,103.7239 41.640138,103.89933 41.821827,104.09003 42.028959,104.25048 42.373817,104.51761 43.056581,104.93266 43.457296,105.1078 44.411295,105.52475 45.338168,105.63592 46.376497,105.63076 46.632939,105.60941 46.892021,105.60831 47.145959,105.56668 47.714154,105.47353 47.898604,105.38615 48.381543,105.12278 48.664451,104.9685 48.917479,104.7914 49.097778,104.52024 49.128377,104.49901 48.828134,104.06596 48.797538,104.08719 48.669373,104.08085 48.331326,104.06346 48.232715,104.06393 48.092343,104.06459 47.952311,104.08604 47.812069,104.07995 47.623908,104.07177 47.437288,104.03921 47.249829,104.02104 46.81006,103.97842 46.370033,103.9416 45.930013,103.90167 45.857078,103.87407 45.786433,103.8384 45.710905,103.81899 45.49619,103.7638 45.274122,103.73884 45.060815,103.67843 44.776921,103.59805 44.106883,103.34011 43.842802,103.19835 43.493637,103.01091 43.131467,102.71987 42.815991,102.48263 42.677529,102.33899 42.523946,102.20839 42.400513,102.05165 42.268692,101.88427 42.164219,101.69692 42.053764,101.51473 41.875136,101.22008 41.569095,100.66863 41.429513,100.35046 41.215044,99.861606 41.167575,99.627929 41.022302,99.115914 40.783177,98.297185 40.754227,97.446044 40.8342,96.601339 40.852983,96.402941 40.866764,96.202145 40.914299,96.00861 40.963609,95.807847 41.053496,95.619339 41.123071,95.424666 41.198221,95.238612 41.258325,95.045877 41.348381,94.866561 41.683811,94.198661 42.240828,93.588609 42.941565,93.297148 43.115126,93.224959 43.302997,93.193553 43.483651,93.141602 43.487444,93.140917 43.491226,93.140209 43.49502,93.139535 43.730809,93.182846 43.969901,93.210503 44.209188,93.222734 44.982426,93.262259 45.781354,93.267297 46.523775,93.02533 46.558348,93.023449 46.571401,93.022865 46.612659,93.020679 46.781051,92.975433 46.94966,92.930016 47.118054,92.88477 47.133046,92.893777 47.184235,92.830066 47.244661,92.742143 47.249017,92.741223 47.25368,92.740357 47.247245,92.739042 47.248753,92.736841 47.24986,92.734558 47.251379,92.732324 47.317532,92.732771 47.383738,92.734188 47.449817,92.733358 47.471148,92.733089 47.485857,92.729778 47.511829,92.72664 47.563118,92.726247 47.614574,92.725548 47.665824,92.725606 47.799872,92.734123 47.948478,92.682196 48.078202,92.694084 48.247796,92.709623 47.985884,92.703917 48.178971,92.704936 48.463643,92.753 48.663528,92.712855 47.770211,92.731291 47.725516,92.732211 47.859116,92.737144 47.903536,92.739559 48.219943,92.756752 47.934697,92.738217 48.270955,92.761263 48.886968,92.800773 49.494798,92.843105 50.117354,92.866166 50.743128,92.869926 51.366609,92.88035 51.990108,92.904924 52.559708,92.939398 53.124469,92.992685 53.700598,92.995357 54.520971,93.044972 55.361996,93.042784 56.186235,93.009827 56.274245,93.012439 56.362165,93.016033 56.450301,93.017578 56.97243,93.026743 56.436442,93.00944 56.964482,93.025846 57.057173,93.028728 57.334194,93.02901 57.242501,93.035665 57.065602,93.0485 56.880732,93.028655 56.705066,93.04445 56.599065,93.053983 56.920685,93.051305 57.02856,93.054785 57.428448,93.07271 57.828401,93.086018 58.228487,93.096126 58.143047,93.662396 58.123444,94.2647 58.247607,94.806616 58.26824,94.896672 58.308293,94.980807 58.338558,95.068099 58.340495,95.110649 58.942009,95.08326 58.940072,95.04071 58.970129,94.962272 59.006192,94.885987 59.030505,94.805583 59.063652,94.695961 59.084859,94.582979 59.112154,94.471753 59.154958,94.328338 59.195743,94.184518 59.240828,94.041805 59.33951,93.729424 59.445494,93.419009 59.553471,93.109562 59.826779,93.106938 60.100298,93.099826 60.374093,93.089408 60.327877,93.33011 60.289204,93.586399 60.242318,93.902795 60.221243,94.045014 60.133209,94.776158 60.125012,95.003503 60.12185,95.091189 60.132945,95.178886 60.136898,95.266536 60.122293,95.31152 60.75843,95.518227 60.773035,95.473242 60.834099,95.396831 60.901903,95.324968 60.956486,95.243799 61.038782,95.121427 61.520231,94.280952 61.531645,94.260396 61.839405,93.706149 62.010004,93.406371 62.19672,92.966418 62.264532,92.96157 62.332566,92.95695 62.400326,92.951949 63.030741,92.937069 63.660553,92.977125 64.293233,92.985539 64.427193,92.985965 64.827382,92.996415 64.695276,92.986572 64.520546,92.97356 63.987304,92.981263 64.164042,92.97572 64.576484,92.962787 64.991015,92.970204 65.404277,92.964351 65.510712,92.962843 65.82826,92.959386 65.722603,92.953499 65.550568,92.943916 64.698257,92.952847 65.403243,92.946781 65.95763,92.951559 66.513411,92.95789 67.067741,92.970553 68.117968,93.032346 69.174783,93.035723 70.232406,93.040833 70.002166,93.032661 70.734179,93.039904 70.999801,93.036698 71.422247,93.041207 71.212638,93.034996 71.79045,93.053752 71.949399,93.059224 72.108038,93.068584 72.267424,93.070288 72.572951,93.073553 72.878028,93.059537 73.183647,93.059436 73.62029,93.059293 74.058477,93.064657 74.495194,93.066671 74.638554,93.066054 74.781776,93.065221 74.925142,93.064604 75.325443,93.064737 75.725811,93.065929 76.126103,93.06512 76.171973,93.070023 76.414853,93.069542 76.511092,93.073905 76.642795,93.079879 76.773884,93.08724 76.905383,93.094059 77.782746,93.114252 78.64714,93.199992 79.519694,93.247021 81.125575,93.356236 82.751246,93.384882 84.372628,93.347791 85.193535,93.345283 85.984771,93.255215 86.788501,93.198446 87.141609,93.173506 87.440572,93.166687 87.796708,93.154521 88.723829,93.090662 89.666232,93.067561 90.600155,93.109045 90.519911,93.109738 90.439583,93.110175 90.359342,93.111112 90.499978,93.116626 90.638685,93.131121 90.779472,93.136434 91.289713,93.155686 91.802988,93.160613 92.315812,93.154521 92.151228,93.690993 92.03681,94.234578 92.024874,94.75649 92.022707,94.851238 92.038673,94.945671 92.045544,95.040194 92.037279,95.096463 92.833093,95.213253 92.841361,95.156982 93.261646,94.484202 93.662036,93.795784 94.018034,93.085791 94.375745,93.062129 94.732925,93.036871 95.089803,93.01086 95.017272,93.48523 94.968338,93.963217 94.960095,94.441264 94.936759,94.504944 95.83696,94.835156 95.860299,94.771476 96.287915,94.218073 96.546781,93.552766 96.735697,92.879602 97.118332,92.846948 97.500295,92.812577 97.884465,92.78245 98.431845,92.720797 98.984529,92.775247 99.537077,92.779867 100.12501,92.781907 100.70851,92.746564 101.29614,92.74421 101.3872,92.745633 101.47799,92.746835 101.56899,92.748861 101.77511,92.753454 102.39313,92.761505 102.18704,92.766431 101.90481,92.773175 101.6216,92.766856 101.33903,92.769531 101.23362,92.770529 101.54988,92.770452 101.65529,92.771082 101.76422,92.77173 101.87349,92.772953 101.98241,92.773665 103.04252,92.816189 104.10887,92.822117 105.17291,92.813973 105.44184,92.811915 104.63511,92.80745 104.36624,92.804154 104.80431,92.785532 105.24072,92.751313 105.68244,92.756612 106.10369,92.794188 106.52927,92.819371 106.95523,92.843429 107.42273,92.860987 107.87856,92.910488 108.34119,92.941614 108.71251,92.949972 109.06695,92.977227 109.42174,93.026363 109.88983,93.10219 110.3867,93.123915 110.8723,93.166923 111.19572,93.187759 111.51641,93.185883 111.83969,93.188627 112.10277,93.16133 112.36404,93.203706 112.62413,93.206714 113.03588,93.21148 113.44784,93.208841 113.85972,93.209814 114.25236,93.182234 114.64966,93.176703 115.04517,93.162272 115.40462,93.160817 115.75306,93.111163 116.09421,93.06512 116.32947,93.027046 116.56146,92.991853 116.79907,92.962284 116.80445,92.962662 116.80986,92.962945 116.81509,92.963318 116.69649,92.990842 116.57788,93.018587 116.45904,93.045483 115.97625,93.154755 115.48677,93.258982 115.00693,93.370528 114.49797,93.48884 114.00615,93.62048 113.49281,93.735364 112.92974,93.861377 112.35043,93.973647 111.77922,94.092965 110.02166,94.43403 108.3077,94.817475 106.65706,95.243282 105.79096,95.46671 104.9917,95.695802 104.26754,95.994141 104.22447,96.027723 104.11756,96.057752 104.13835,96.09491 104.15044,96.116503 104.24155,96.099708 104.29803,96.103178 103.73295,96.333687 104.72946,97.041096 105.71086,97.071594 105.8364,97.075496 105.96239,97.07675 106.0881,97.079346 106.31882,97.065229 106.55271,97.057781 106.78056,97.036971 108.22355,96.905179 109.61559,96.659756 110.9462,96.396183 111.57087,96.272447 112.19265,96.145471 112.7957,96.003959 113.42404,95.856507 114.02315,95.68807 114.63693,95.530086 115.35361,95.323794 117.07943,94.83653 117.78868,94.597843 118.23462,94.447773 118.65601,94.284754 119.07025,94.11932 119.70319,93.866539 120.25456,93.627021 120.71976,93.317301 120.80319,93.261754 120.86577,93.201064 120.92802,93.140568 121.07572,93.133685 121.22295,93.124096 121.36675,93.112663 121.41104,93.106985 121.42109,93.099195 121.43755,93.08114 121.55306,93.063591 121.29592,92.659914 121.00708,92.30341 121.01525,92.293821 121.01753,92.28668 121.01174,92.282222 120.91137,92.161778 120.83446,92.033902 120.71046,91.921004 120.63424,91.851613 120.5553,91.785094 120.4743,91.7205 120.58937,91.717228 120.65792,91.715885 120.72493,91.713265 120.68734,91.702999 120.64752,91.69211 120.60142,91.679159 120.67327,91.687869 120.72827,91.698643 120.76214,91.712231 120.78324,91.711431 120.83044,91.71068 120.84792,91.710164 120.87701,91.713918 120.90976,91.715654 120.93422,91.722567 121.10607,91.771139 121.25549,91.836 121.43703,91.877079 121.62888,91.920489 121.08298,91.742982 120.92647,91.707581 120.92728,91.707571 120.93032,91.707589 120.93112,91.707581 120.92695,91.707067 120.92289,91.706548 120.91872,91.70603 H 120.9182 C 120.89994,91.702142 120.88219,91.698538 120.87996,91.700346 120.84453,91.694681 120.81032,91.689711 120.80503,91.694661 120.6715,91.673376 120.64167,91.669195 120.57972,91.673474 120.49835,91.651154 120.42649,91.63429 120.44898,91.657971 120.41671,91.657862 120.42403,91.658078 120.3942,91.657971 120.01797,91.36966 119.593,91.121292 119.12038,90.863188 118.72106,90.645121 118.31466,90.43055 117.88479,90.232735 117.2011,89.918113 115.5376,89.275791 114.84674,89.00387 114.25508,88.795624 113.67735,88.573463 113.07165,88.379102 112.49032,88.192568 111.89097,88.02492 111.28881,87.86182 110.00616,87.514394 108.66403,87.191148 107.27304,87.017428 107.0534,86.989997 106.82831,86.980224 106.6059,86.961617 106.48472,86.965038 106.36311,86.966809 106.24209,86.971952 105.29619,87.012148 104.33565,87.944911 104.8799,88.248877 104.82545,88.253396 104.73806,88.230775 104.72642,88.259212 104.70638,88.308192 104.80944,88.347755 104.85096,88.392021 105.54902,88.785273 106.31928,89.087116 107.15418,89.381624 108.74534,89.942898 110.39763,90.448237 112.09187,90.897811 112.6425,91.055088 113.20118,91.203514 113.74396,91.369617 113.88071,91.411465 114.01576,91.455517 114.15014,91.499841 114.07022,91.496718 113.98979,91.495365 113.90674,91.501908 113.78684,91.503499 113.66723,91.50885 113.54759,91.513277 113.50544,91.502791 113.46342,91.490894 113.42512,91.485889 113.15104,91.450438 112.88683,91.404163 112.6045,91.380986 112.15698,91.350855 111.74056,91.239775 111.27693,91.235258 110.81908,91.224053 110.40816,91.108838 109.94988,91.090047 109.52889,91.066309 109.11057,91.05499 108.70189,90.995996 108.17905,90.947178 107.65077,90.907863 107.11439,90.910213 106.5959,90.876124 106.08789,90.815235 105.56668,90.78929 105.23915,90.786674 104.91133,90.783572 104.5838,90.781022 104.48339,90.780938 104.43602,90.781006 104.36211,90.781539 103.98363,90.78427 103.60675,90.797214 103.22832,90.800142 102.19558,90.783759 101.1604,90.773876 100.13084,90.819263 99.522647,90.823713 98.915273,90.789107 98.306661,90.80686 97.895613,90.816904 97.488899,90.844369 97.08348,90.87559 97.086995,90.749212 97.090334,90.622904 97.096916,90.496802 97.0998,90.197508 97.1023,89.898476 97.105184,89.599182 97.116006,89.526736 96.091781,89.373257 96.080957,89.445703 95.980831,89.723793 95.880845,90.002188 95.780717,90.280278 95.695523,90.522403 95.599002,90.7609 95.517684,91.004264 95.300353,91.024536 95.081694,91.041371 94.86346,91.059558 94.96927,90.764193 94.899333,90.920922 94.992135,90.056519 95.012823,89.863815 95.045576,89.672295 95.072233,89.480326 95.088198,89.432466 94.411237,89.20664 94.395272,89.2545 94.28053,89.413163 94.172712,89.576973 94.051107,89.73044 93.239957,90.754125 93.747826,89.929481 93.104395,91.147408 93.100881,91.15536 93.097583,91.163719 93.094059,91.171696 92.777476,91.185144 92.459903,91.193325 92.139079,91.187716 91.132745,91.183286 92.324655,91.187344 92.460506,91.193917 92.603832,91.200854 92.171991,91.196087 92.027974,91.199084 91.863644,91.202503 91.700002,91.214123 91.535498,91.213554 91.372229,91.212986 91.209898,91.20181 91.047156,91.195984 90.501511,91.19782 89.955688,91.199835 89.410046,91.201668 88.371279,91.260115 87.328324,91.305783 86.28724,91.355147 86.066961,91.371905 85.524709,91.415299 85.292468,91.425427 84.553484,91.457656 83.803472,91.434238 83.063664,91.463668 83.038201,91.464356 81.790637,91.494453 81.75625,91.510177 81.642908,91.562009 82.245404,91.485777 82.232707,91.557719 82.223758,91.608398 80.949642,91.584285 80.83951,91.585624 79.887111,91.549408 78.930545,91.535141 77.980253,91.489506 77.23789,91.495144 76.502177,91.499049 75.758167,91.495707 75.622821,91.495098 75.217798,91.497852 75.35199,91.490023 75.419023,91.486111 75.486827,91.487734 75.554561,91.488989 75.484122,91.489012 75.469841,91.488232 75.427437,91.487956 74.9966,91.487879 74.563626,91.489926 74.132943,91.485372 73.842961,91.482308 73.554791,91.463033 73.264779,91.460567 73.093432,91.459109 72.922403,91.465734 72.751115,91.468319 71.73012,91.489093 70.706691,91.478748 69.684635,91.473486 69.728584,91.474721 69.773126,91.47376 69.815894,91.478654 69.943168,91.493217 69.553431,91.480583 69.422119,91.483305 68.959475,91.492902 68.497,91.500592 68.033573,91.502942 67.453176,91.496528 66.873239,91.479728 66.293628,91.467285 65.45734,91.452947 66.66708,91.472366 64.818266,91.457467 64.715102,91.456636 64.406766,91.457243 64.508724,91.450232 64.691467,91.437664 65.247739,91.445863 65.063212,91.440413 64.448735,91.422268 63.940555,91.427564 63.35634,91.431112 63.142017,91.435967 62.930354,91.447772 62.718136,91.457467 62.738037,91.391127 62.757899,91.325099 62.778597,91.259029 62.822258,90.914875 62.866194,90.570688 62.909855,90.226534 62.934964,90.146648 61.804801,89.791634 61.779692,89.871517 61.579122,90.171282 61.378748,90.470922 61.178178,90.770687 61.068686,91.029407 60.948461,91.283843 60.840731,91.54325 60.584666,91.551257 60.328689,91.557979 60.072302,91.560819 60.191385,91.189176 59.987707,91.85082 60.216996,90.713326 60.25408,90.529361 60.315478,90.351278 60.364791,90.170207 60.383595,90.123389 59.72162,89.857255 59.702816,89.904073 59.310512,90.446002 58.857811,90.943363 58.620194,91.573222 58.75466,91.570512 58.923762,91.56681 58.271379,91.57994 58.148791,91.582409 58.026005,91.58556 57.903442,91.588208 57.024641,91.608396 56.139905,91.591913 55.266911,91.649703 55.089533,91.649891 54.962938,91.64883 54.785803,91.652804 54.742795,91.653767 54.712618,91.655321 54.657129,91.656938 54.12974,91.612454 53.589314,91.599346 53.057743,91.567021 52.39264,91.531559 51.726698,91.505926 51.058899,91.482788 50.693873,91.480516 50.324246,91.468751 49.959741,91.482271 49.862205,91.485888 49.766535,91.498017 49.668803,91.500358 49.632868,91.501218 49.239992,91.490206 49.19493,91.488989 48.574921,91.487301 47.939839,91.460613 47.331995,91.515861 47.298888,91.517326 47.264098,91.522429 47.229675,91.526196 47.226042,91.524669 47.223088,91.523842 47.22089,91.525163 47.052496,91.479917 46.883887,91.4345 46.715495,91.389254 46.558129,91.380915 46.455632,91.375049 46.376497,91.37065 46.358778,91.365125 46.341051,91.359884 46.323271,91.354631 46.152341,91.256591 45.995893,91.181236 45.943449,91.26213 45.342047,91.146243 44.716097,91.156031 44.106352,91.187199 43.907585,91.197359 43.708843,91.217432 43.512073,91.248694 43.354717,91.207617 43.194302,91.174616 43.044401,91.112268 42.343664,90.820806 41.786647,90.211272 41.451217,89.543372 41.361161,89.364056 41.301057,89.171321 41.225907,88.985266 41.156332,88.790593 41.066446,88.602085 41.017135,88.401322 40.9696,88.207788 40.955819,88.006992 40.937036,87.808594 40.857063,86.963889 40.886014,86.112748 41.125138,85.294019 41.270411,84.782003 41.31788,84.548331 41.532349,84.059469 41.671931,83.741305 41.977972,83.18933 42.1566,82.894682 42.267055,82.712487 42.371528,82.525152 42.503349,82.357764 42.626782,82.201027 42.780365,82.070933 42.918827,81.927299 43.234303,81.690057 43.596473,81.399021 43.945638,81.21158 44.209719,81.06982 44.879757,80.811894 45.163652,80.731506 45.376958,80.671104 45.599026,80.646133 45.813741,80.590946 45.889269,80.571533 45.959914,80.535868 46.032849,80.508264 46.472869,80.468338 46.912896,80.431517 47.352665,80.388892 47.540124,80.370723 47.726744,80.338156 47.914905,80.32998 48.055147,80.323887 48.195179,80.345335 48.335551,80.346 48.434162,80.346468 48.772209,80.329083 48.900374,80.322746 48.93097,80.343974 49.231213,79.910927 49.200614,79.889697 49.020315,79.618529 48.767287,79.441432 48.484379,79.28715 48.001441,79.023784 47.81699,78.936398 47.248796,78.84325 46.994857,78.80162 46.735775,78.800523 46.479333,78.779171 Z M 69.684635,91.473486 C 69.563872,91.470094 69.441117,91.473604 69.3198,91.471936 69.441352,91.472354 69.563036,91.47286 69.684635,91.473486 Z M 75.554561,91.488989 C 75.715195,91.488938 75.940981,91.487856 75.844466,91.49054 75.748065,91.493218 75.651326,91.490783 75.554561,91.488989 Z M 104.5838,90.781022 C 104.66268,90.781089 104.81599,90.781808 104.75795,90.781022 104.50124,90.777551 103.73069,90.773683 103.98745,90.776371 104.18615,90.778453 104.38507,90.779475 104.5838,90.781022 Z M 120.93112,91.707581 C 121.08629,91.72669 121.24042,91.743273 121.37812,91.781478 121.1388,91.718927 121.06295,91.706192 120.93112,91.707581 Z M 120.76214,91.712231 C 120.75298,91.712579 120.73488,91.712876 120.72493,91.713265 120.77641,91.727325 120.81378,91.736087 120.79263,91.721533 120.7873,91.717869 120.77045,91.715568 120.76214,91.712231 Z M 90.359342,93.111112 C 90.346891,93.110624 90.334625,93.109364 90.322135,93.109045 90.192448,93.10574 89.802584,93.115173 89.932495,93.115247 90.074763,93.115326 90.217112,93.112773 90.359342,93.111112 Z M 113.63079,91.529814 C 113.68331,91.530285 113.7359,91.530119 113.7884,91.530847 113.80517,91.53108 113.75737,91.536753 113.74086,91.538082 113.70431,91.541022 113.66755,91.536353 113.63079,91.529814 Z M 47.244661,91.537048 C 47.417837,91.536726 47.696471,91.535609 47.583659,91.538599 47.4719,91.54156 47.35975,91.539346 47.247762,91.539632 47.246667,91.538625 47.245706,91.537951 47.244661,91.537048 Z M 54.720691,91.662105 C 55.43774,91.674728 54.987588,91.653571 54.75118,91.664172 54.741083,91.663241 54.730798,91.663011 54.720691,91.662105 Z M 120.40092,91.663139 C 120.4575,91.666528 120.51067,91.668997 120.55957,91.673991 120.53416,91.675631 120.47558,91.676632 120.42004,91.677608 120.41375,91.672724 120.40724,91.668 120.40092,91.663139 Z M 116.46938,92.949365 C 116.56444,92.946872 116.67112,92.953738 116.77375,92.960734 116.63286,92.960334 116.4919,92.961031 116.35104,92.961251 116.3797,92.954108 116.42139,92.950624 116.46938,92.949365 Z M 116.84351,92.9566 C 116.83782,92.957923 116.83216,92.959412 116.82646,92.960734 116.82181,92.960725 116.81716,92.960745 116.81251,92.960734 116.82286,92.95946 116.83313,92.957844 116.84351,92.9566 Z" />
  </g>
</svg>
