<?xml version="1.0" encoding="UTF-8" standalone="no"?>
<!-- Created with Inkscape (http://www.inkscape.org/) -->

<svg
   width="140.25836mm"
   height="89.927284mm"
   viewBox="0 0 140.25836 89.927284"
   version="1.1"
   id="svg5"
   xmlns="http://www.w3.org/2000/svg"
   xmlns:svg="http://www.w3.org/2000/svg">
  <defs
     id="defs2">
    <rect
       x="82.040298"
       y="380.25031"
       width="608.14001"
       height="291.69885"
       id="rect442" />
  </defs>
  <g
     id="layer1"
     transform="translate(-22.126683,-71.914297)">
    <path
       style="fill:#ffffff;fill-opacity:1;fill-rule:nonzero;stroke:none;stroke-width:0.220502"
       id="path436"
       d="M 37.675005,90.394403 C 37.896467,91.489155 38.030356,92.597742 38.281711,93.686724 38.824703,95.69439 39.904521,95.328507 41.840197,95.291899 43.388213,94.852843 44.581577,93.764752 45.684658,92.655924 46.505749,91.906204 47.086158,90.921706 47.910342,90.179894 48.71824,90.098816 47.004659,90.135508 46.569641,90.238718 46.474827,90.261215 46.685949,90.394417 46.732538,90.479198 46.801422,90.604551 46.855592,90.737307 46.915055,90.867298 47.726117,92.640321 46.4966,89.982298 47.391665,91.912576 47.893866,92.825382 48.609316,93.925328 49.526516,94.483531 49.718139,94.600153 49.937478,94.66473 50.14296,94.75533 51.409092,94.868546 51.645653,94.938771 53.342693,94.571844 53.676995,94.499563 53.958685,94.274738 54.252127,94.10051 55.11639,93.587365 55.857147,92.929828 56.597834,92.261577 57.377021,91.563759 58.006136,90.727714 58.72786,89.976873 58.796205,89.953152 58.8608,89.91253 58.932899,89.905709 59.019283,89.897535 59.27834,89.927127 59.191766,89.932984 58.699635,89.966282 58.200705,89.915171 57.712981,89.988246 57.576971,90.008624 57.97905,90.057591 58.111356,90.094861 59.619554,90.51972 57.525941,89.945272 59.131715,90.383098 60.590066,90.574073 62.396985,90.966685 63.634297,89.990808 63.765892,89.88702 63.869329,89.752415 63.986845,89.633217 64.449938,88.966883 64.642018,88.142235 63.984095,87.543184 62.105773,86.89943 61.151539,87.397144 60.615405,88.908994 60.438529,90.433723 61.086696,91.873733 61.807244,93.181393 62.377004,93.994479 63.127069,94.828819 64.220437,94.839154 65.1039,94.847503 66.00379,94.902306 66.868299,94.721944 67.256009,94.641058 67.531993,94.293341 67.863841,94.079037 71.447736,90.579566 73.8607,86.124475 76.186543,81.75732 77.224501,79.745925 78.21254,77.705907 79.046826,75.602317 79.456416,74.569569 79.817826,73.657986 79.912802,72.557417 79.379869,71.751905 79.537742,71.82568 77.529579,72.472582 77.261547,72.558925 77.202203,72.927354 77.054242,73.164824 76.299081,74.376798 75.71789,75.676491 75.120313,76.968182 73.96909,79.628151 72.991172,82.375223 72.521439,85.240711 72.432613,85.78257 72.383713,86.330109 72.314849,86.874808 72.221557,88.546702 72.002596,91.383617 72.994366,92.862784 73.141042,93.081543 73.360892,93.242404 73.544156,93.432215 74.292026,93.747807 74.270235,93.831939 75.125546,93.79618 75.993162,93.759908 76.864754,93.727292 77.722751,93.594704 78.452144,93.481989 79.742887,92.725197 80.405436,92.363153 81.034671,92.00977 81.637389,91.613863 82.240686,91.219597 82.337912,91.156059 82.428885,91.081843 82.532667,91.02944 82.568308,91.011444 82.691429,91.012995 82.651428,91.012201 81.993572,90.999146 81.335521,90.99915 80.677567,90.992624 80.179734,92.10921 80.340154,93.014096 80.743625,94.135064 81.029708,94.569922 81.143948,94.869963 81.630015,95.12255 81.836685,95.22995 82.067511,95.309223 82.300555,95.322335 84.44866,95.4432 84.830719,95.436878 86.468694,94.630714 87.804294,93.840776 88.973082,92.821398 89.915089,91.598947 89.947521,91.542128 90.077798,91.436616 90.012381,91.428491 89.347714,91.345928 88.667619,91.27198 88.003879,91.361547 87.878886,91.378414 87.919731,91.597021 87.881558,91.716029 87.702001,92.275814 87.626498,92.808615 87.579279,93.392716 87.608426,93.558311 87.606187,93.732453 87.666725,93.8895 88.03965,94.856959 90.358937,94.221751 90.549971,94.188952 90.711188,94.161271 91.218177,93.533056 91.289201,93.451066 91.865667,92.707449 92.15856,91.801692 92.86689,91.165891 94.076904,90.445517 95.487493,90.141966 96.87917,90.025731 96.472304,90.051732 96.02782,89.932614 95.658574,90.103735 95.467653,90.192215 96.064305,90.22393 96.253681,90.315606 96.436264,90.403996 96.604743,90.520075 96.767505,90.640571 97.243893,90.993253 97.662347,91.437676 98.114592,91.820543 98.269418,91.912614 98.412568,92.027472 98.579074,92.096754 98.753947,92.169519 98.939232,92.23492 99.128771,92.242543 101.73615,92.347412 102.10735,92.247268 104.2584,91.742684 104.4956,91.712529 105.20899,91.660814 104.97,91.652217 101.54116,91.528898 103.20321,91.585675 103.74418,91.858651 104.19871,92.088009 104.54874,92.547692 104.90501,92.895088 105.05671,92.996649 105.19556,93.120186 105.36011,93.199773 107.1358,94.058589 109.49252,93.222064 111.35624,92.905289 111.61651,92.891176 112.3975,92.852708 112.13704,92.862953 111.58773,92.884564 111.02094,92.799733 110.4896,92.939382 110.27425,92.995981 110.92207,93.049373 111.13042,93.127523 111.73656,93.354878 112.29113,93.724336 112.84732,94.047151 113.23299,94.238626 113.66561,94.483833 114.09521,94.569696 115.17603,94.785711 118.10501,94.430911 118.26685,94.406652 118.76352,94.332206 119.78169,93.678704 120.18879,93.439452 121.30292,92.658958 122.40603,91.777361 122.3238,90.313151 121.88466,89.143134 120.83658,89.765053 119.25688,90.041879 119.14537,90.06142 119.12557,90.597625 119.20159,90.915212 119.24818,91.109855 119.34133,91.290607 119.4112,91.478308 119.54768,91.672224 119.65484,91.890003 119.82065,92.060061 121.40296,93.682985 124.56446,93.111686 126.57082,92.969877 126.57082,92.969877 126.23168,92.918745 126.23168,92.918745 V 92.918745 C 125.59521,92.918221 125.99976,92.944195 125.2178,92.799268 124.06204,92.585058 122.91457,92.373143 122.17554,91.372126 122.04046,91.077868 121.8775,90.82707 121.87657,90.494403 121.87638,90.426161 122.01638,90.309575 121.94784,90.30222 121.11399,90.212753 120.27031,90.274099 119.43265,90.232179 119.37259,90.229175 119.54997,90.165135 119.60662,90.185058 119.66925,90.207084 119.69083,90.286877 119.73294,90.337785 119.9272,91.666132 118.83612,92.499661 117.84935,93.196256 117.53924,93.36906 117.24158,93.565873 116.91902,93.714668 116.59463,93.864301 115.70819,93.799247 115.91416,94.088929 116.18578,94.470921 116.86616,94.138158 117.31739,94.274935 117.57526,94.353102 116.77537,94.3064 116.50834,94.269034 116.08619,94.20996 115.63654,93.970849 115.25748,93.796724 114.68565,93.472999 114.1227,93.090503 113.51745,92.829662 112.11494,92.22523 110.52674,92.447609 109.03717,92.583362 108.48252,92.686053 107.93244,92.81236 107.37706,92.91106 107.11597,92.957461 106.32788,92.981323 106.58955,93.02443 107.15323,93.117291 107.7329,93.096068 108.3034,93.063666 108.48587,93.053303 107.93713,93.02026 107.76566,92.957634 107.60219,92.897932 107.46292,92.78682 107.31155,92.701412 106.91795,92.344821 106.56183,91.852478 106.10402,91.574969 104.92382,90.859595 103.36721,91.237658 102.0616,91.450694 101.59302,91.563875 101.00831,91.712616 100.53459,91.796041 100.28986,91.83914 99.551653,91.8537 99.796085,91.898423 100.29967,91.990562 100.82004,91.960827 101.33179,91.941903 101.52278,91.934841 100.94728,91.916464 100.76406,91.862629 100.58944,91.811319 100.43512,91.707614 100.27066,91.630106 99.613176,91.130573 99.035039,90.450794 98.294006,90.069969 97.19056,89.502898 96.437989,89.783876 94.974731,89.746897 93.568727,89.916386 92.099906,90.225295 90.903898,91.010016 90.243748,91.685813 89.964231,92.584635 89.365741,93.31111 89.243866,93.43805 89.134812,93.578397 89.000113,93.691932 88.881011,93.792319 88.460104,93.90176 88.609128,93.948846 89.105807,94.105771 89.650158,94.011566 90.169099,94.061277 90.283586,94.072243 89.932644,94.102778 89.824062,94.065223 89.486088,93.948328 89.493608,93.695165 89.39703,93.402388 89.409957,92.91975 89.38226,92.73751 89.526911,92.267727 89.576459,92.106803 89.64685,91.951591 89.72941,91.804542 89.784082,91.707165 90.044023,91.569616 89.935565,91.539862 88.108899,91.038744 88.209498,90.776789 88.060476,91.484141 87.216239,92.716952 86.075651,93.704993 84.767742,94.440002 84.480176,94.568599 84.202455,94.721416 83.905046,94.825796 83.632899,94.921311 82.924493,94.788041 83.065597,95.037399 83.227028,95.32268 83.733587,95.165961 84.05514,95.091044 84.272491,95.040405 83.604693,95.044699 83.398516,94.959836 82.892355,94.751491 82.78691,94.489467 82.476395,94.074445 82.027653,92.91115 81.942041,92.138826 82.608802,91.051071 81.97609,90.965359 81.346062,90.857299 80.710671,90.793935 80.683352,90.791211 80.678008,90.838035 80.657884,90.856522 80.586004,90.922555 80.512728,90.987374 80.435283,91.046925 79.893175,91.46376 79.310502,91.827362 78.728338,92.185635 78.059409,92.553016 77.723461,92.763665 77.005529,93.0493 76.698898,93.171293 76.193143,93.06588 76.068074,93.368661 75.972836,93.599223 76.930763,93.324954 76.803016,93.539563 76.631568,93.827584 75.376348,93.34411 75.231039,93.297545 75.036222,93.127363 74.80611,92.990015 74.646592,92.786995 73.545034,91.385034 73.658811,88.547527 73.736498,86.891724 73.80018,86.350296 73.843917,85.806206 73.927538,85.267444 74.371291,82.408441 75.33893,79.655135 76.547379,77.030949 77.13761,75.847526 77.340579,75.3589 78.040111,74.261092 78.255306,73.923374 78.479901,73.589865 78.733697,73.27952 78.915404,73.057325 79.549662,72.867762 79.342128,72.668965 79.049816,72.388955 77.187961,72.279472 78.126637,72.561353 78.153007,72.751159 78.216436,72.939472 78.205744,73.130774 78.16535,73.853619 77.83912,74.915391 77.629247,75.550522 76.930027,77.66654 76.011999,79.705276 75.021701,81.701287 72.987457,85.512428 70.663904,89.641275 67.544508,92.701117 67.105339,93.131901 66.60823,93.500674 66.140094,93.900453 64.823081,94.578329 64.576133,94.447421 66.055712,94.5821 66.301374,94.604463 65.558936,94.555186 65.321733,94.488081 64.558238,94.272085 64.050438,93.697927 63.598596,93.090314 62.86507,91.843308 62.245139,90.446712 62.445112,88.970293 62.596418,88.54578 62.744431,88.209643 63.129021,87.939444 63.221857,87.874221 63.542773,87.801186 63.430756,87.781076 63.268364,87.751922 61.093502,87.688364 62.108648,87.718605 62.833534,88.100863 62.529935,88.96773 62.123443,89.482759 61.783306,89.77462 61.742031,89.856731 61.313366,90.031137 61.149668,90.097739 60.634658,90.136742 60.805216,90.18354 61.222106,90.297931 61.669525,90.223239 62.101449,90.247375 62.482344,90.268659 60.554343,90.19676 60.961632,90.144884 59.73147,89.824186 58.079913,89.090095 56.932571,89.849533 56.312272,90.628066 55.736182,91.44406 55.007497,92.131968 54.295022,92.802052 53.579455,93.448231 52.717579,93.93187 52.42087,94.098365 51.917432,94.055143 51.795224,94.370328 51.71124,94.586926 52.561828,94.378708 52.46279,94.588984 52.3555,94.816772 51.955132,94.576152 51.701303,94.569735 51.482126,94.495684 51.248906,94.453987 51.043772,94.347585 50.157774,93.888023 49.343623,92.716255 48.910103,91.849883 48.640819,91.225072 48.712595,91.41472 48.48723,90.806571 48.423138,90.633618 48.235181,90.097268 48.21747,90.093146 46.697713,89.739341 46.896529,89.647931 46.293194,90.056698 45.595586,90.875468 45.002209,91.782477 44.234255,92.544201 43.144087,93.644658 41.950612,94.715434 40.390987,95.076683 40.682428,95.094937 40.973576,95.144337 41.265308,95.131444 41.43035,95.124152 40.933647,95.105386 40.775015,95.059712 40.099582,94.865235 39.796728,94.271432 39.597369,93.655191 39.307306,92.574708 39.174467,91.465526 39.017112,90.360037 39.017112,90.360037 37.675005,90.394403 37.675005,90.394403 Z" />
    <path
       style="fill:#ffffff;fill-opacity:1;fill-rule:nonzero;stroke:none;stroke-width:0.213899"
       id="path438"
       d="M 126.73578,95.722399 C 128.17172,94.385133 129.12086,92.379065 130.10341,90.563204 132.53146,85.866441 134.91279,81.133528 137.35656,76.448403 138.15582,75.161998 138.70845,73.629709 139.60829,72.432394 139.71533,72.289969 140.13662,72.095131 139.97996,72.072305 138.54121,71.86266 138.74052,72.032071 138.62706,73.119419 137.87926,77.520959 136.75766,81.812285 135.45606,86.009226 134.98918,87.367845 134.48942,88.723884 133.82138,89.954986 133.71253,90.155576 133.50584,90.591328 133.26731,90.638443 133.26844,90.718083 133.2433,90.80517 133.27068,90.877359 133.32898,91.031028 134.84785,91.389201 134.96191,91.415588 137.02348,91.787019 139.12534,91.698382 141.17644,91.285931 141.33465,91.2495 141.49067,91.193021 141.65108,91.17664 141.75863,91.165656 142.08187,91.198731 141.97405,91.204477 141.34554,91.237959 140.71327,91.183078 140.08729,91.25995 140.03803,91.266 140.13523,91.369211 140.14256,91.429391 140.16074,91.578862 140.1404,92.113589 140.13763,92.223475 140.11885,94.706303 140.93783,93.882216 143.06387,93.693281 143.62053,93.041499 143.8398,92.139083 143.99388,91.241965 144.04987,91.0081 144.07215,90.800835 144.21852,90.6182 144.63959,90.092834 145.81026,89.941266 146.33386,89.803031 147.63872,89.467117 148.95938,89.235589 150.26791,88.924124 151.49256,88.632627 151.10234,88.909275 151.73403,88.294391 151.73403,88.294391 151.36522,88.227698 151.36522,88.227698 V 88.227698 C 150.62709,88.230636 149.88833,88.198972 149.15083,88.236512 147.18501,88.336576 145.24271,88.82176 143.32183,89.307283 142.22563,89.678531 141.63888,89.69338 141.63379,91.192622 141.54858,91.99468 141.42151,92.87733 140.8723,93.40135 141.51613,93.435948 142.16169,93.437821 142.80381,93.50514 142.88382,93.513527 142.6503,93.591528 142.57061,93.579397 142.49734,93.568242 142.43045,93.506932 142.38004,93.440629 142.13607,93.119742 142.18597,92.631234 142.17664,92.235038 142.18122,92.14277 142.29695,91.035278 142.15816,91.001467 141.0657,90.735323 140.23291,90.68492 139.24405,90.949963 138.77787,91.047711 138.4827,91.119046 138.00098,91.176737 137.75051,91.206735 137.00258,91.170022 137.24775,91.239798 137.58248,91.33506 137.93717,91.30479 138.27842,91.255697 138.77317,91.184525 136.35421,91.239802 136.78935,91.101458 136.31747,90.998235 135.85224,90.893095 135.3904,90.734784 135.27662,90.695781 135.12951,90.548334 135.04323,90.64748 135.00112,90.69586 135.01373,90.784447 134.99898,90.852929 135.74292,89.358166 136.25226,87.716145 136.71254,86.062448 137.88269,81.789888 138.94187,77.473251 139.9726,73.147078 140.18015,71.906006 140.44708,71.836756 138.70778,71.954793 138.58048,71.963432 138.56751,72.216767 138.50448,72.352969 138.15556,73.106928 137.83648,73.881198 137.49621,74.6411 137.23227,75.230493 136.96281,75.816113 136.69612,76.40362 134.38603,81.228704 131.94095,85.95471 129.28012,90.501262 128.20661,92.290585 127.1645,94.181868 125.75117,95.599933 125.75117,95.599933 126.73578,95.722399 126.73578,95.722399 Z" />
    <text
       xml:space="preserve"
       transform="matrix(0.30688715,0,0,0.79289838,-4.378042,-223.5134)"
       id="text440"
       style="font-size:102.983px;white-space:pre;shape-inside:url(#rect442);fill:#ffffff;fill-opacity:1;stroke:#ffffff"><tspan
         x="82.041016"
         y="483.73585"
         id="tspan1298"><tspan
           style="font-family:'BIZ UDMincho';-inkscape-font-specification:'BIZ UDMincho'"
           id="tspan1296">TRIVISION</tspan></tspan></text>
  </g>
</svg>
